<?xml version="1.0" encoding="UTF-8"?>
<svg id="Layer_1" data-name="Layer 1" xmlns="http://www.w3.org/2000/svg" viewBox="0 0 75.5 50.74">
  <defs>
    <style>
      .cls-1 {
        fill: #231f20;
        stroke-width: 0px;
      }
    </style>
  </defs>
  <path class="cls-1" d="M70.32,5.18c-6.91-6.91-18.15-6.91-25.05,0l-6.26,6.26,5.01,5.01,6.26-6.26c4.15-4.14,10.89-4.14,15.03,0,2.01,2.01,3.11,4.68,3.11,7.52s-1.11,5.51-3.11,7.52c-4.14,4.14-10.89,4.14-15.03,0L30.23,5.18C23.33-1.73,12.09-1.73,5.18,5.18,1.59,8.77-.12,13.54.03,18.26h-.03v32.49l7.09-7.09v-11.79c6.93,5.21,16.84,4.68,23.15-1.63l6.26-6.26-5.01-5.01-6.26,6.26c-4.14,4.14-10.89,4.14-15.03,0-2.01-2.01-3.11-4.68-3.11-7.52s1.11-5.51,3.11-7.52c4.15-4.14,10.89-4.14,15.03,0l20.04,20.04c3.45,3.45,7.99,5.18,12.53,5.18s9.07-1.73,12.53-5.18c6.91-6.91,6.91-18.15,0-25.06Z"/>
</svg>